<svg xmlns="http://www.w3.org/2000/svg"  viewBox="0 0 64 64" width="64px" height="64px"><path fill="#cda1a7" d="M53,53H4a3,3,0,0,1-3-3V10A3,3,0,0,1,4,7H17l9,6H50a3,3,0,0,1,3,3Z"/><path fill="#faefde" d="M53.44,53H8.56a2,2,0,0,1-1.94-2.49l7-28A2,2,0,0,1,15.56,21H60.44a2,2,0,0,1,1.94,2.49l-7,28A2,2,0,0,1,53.44,53Z"/><path fill="#fff7f0" d="M62.25,24l.13-.51A2,2,0,0,0,60.44,21H15.56a2,2,0,0,0-1.94,1.51L13.25,24Z"/><path fill="#efd8be" d="M8.5,43,6.62,50.51A2,2,0,0,0,8.56,53H53.44a2,2,0,0,0,1.94-1.51L57.5,43Z"/><path fill="#8d6c9f" d="M53 42H49a1 1 0 0 0 0 2h4a1 1 0 0 0 0-2zM11.74 46a1 1 0 0 0-1.21.73l-.5 2a1 1 0 1 0 1.94.48l.5-2A1 1 0 0 0 11.74 46zM16.74 46a1 1 0 0 0-1.21.73l-.5 2a1 1 0 1 0 1.94.48l.5-2A1 1 0 0 0 16.74 46zM21.74 46a1 1 0 0 0-1.21.73l-.5 2a1 1 0 1 0 1.94.48l.5-2A1 1 0 0 0 21.74 46zM26.74 46a1 1 0 0 0-1.21.73l-.5 2a1 1 0 1 0 1.94.48l.5-2A1 1 0 0 0 26.74 46zM31.74 46a1 1 0 0 0-1.21.73l-.5 2a1 1 0 1 0 1.94.48l.5-2A1 1 0 0 0 31.74 46zM36.74 46a1 1 0 0 0-1.21.73l-.5 2a1 1 0 1 0 1.94.48l.5-2A1 1 0 0 0 36.74 46zM41.74 46a1 1 0 0 0-1.21.73l-.5 2a1 1 0 1 0 1.94.48l.5-2A1 1 0 0 0 41.74 46zM46.74 46a1 1 0 0 0-1.21.73l-.5 2a1 1 0 1 0 1.94.48l.5-2A1 1 0 0 0 46.74 46zM51.74 46a1 1 0 0 0-1.21.73l-.5 2a1 1 0 1 0 1.94.48l.5-2A1 1 0 0 0 51.74 46z"/><path fill="#8d6c9f" d="M62.81,21.15A3,3,0,0,0,60.44,20H54V15a3,3,0,0,0-3-3H25.71a3,3,0,0,1-2.11-.87L19.87,7.45A5,5,0,0,0,16.36,6H3A3,3,0,0,0,0,9V50a4,4,0,0,0,4,4H52.7a4,4,0,0,0,3.87-3l6.79-27.29A3,3,0,0,0,62.81,21.15ZM4,52a2,2,0,0,1-2-2V9A1,1,0,0,1,3,8H16.36a3,3,0,0,1,2.11.87l3.72,3.68A5,5,0,0,0,25.71,14H51a1,1,0,0,1,1,1v5H16.51a4,4,0,0,0-3.88,3L6,49.7S5.46,52,4,52ZM61.41,23.24,54.63,50.52A2,2,0,0,1,52.7,52H7.21A6.28,6.28,0,0,0,8,50.15L9.49,44H45a1,1,0,0,0,0-2H10l4.59-18.48A2,2,0,0,1,16.51,22H60.44a1,1,0,0,1,1,1.24Z"/></svg>