<svg xmlns="http://www.w3.org/2000/svg"  viewBox="0 0 64 64" width="64px" height="64px"><path fill="#faefde" d="M22.24,4.94H51c1.657,0,3,1.343,3,3v48c0,1.657-1.343,3-3,3H13c-1.657,0-3-1.343-3-3V17.18	c0.001-0.795,0.317-1.558,0.88-2.12l9.24-9.24C20.682,5.257,21.445,4.941,22.24,4.94z"/><path fill="#fff7f0" d="M10,59l-0.15-9.46L53.34,6.06L54,29L24,59H10z M9.85,39.15L44.06,4.94l5.75,0.25L10,45L9.85,39.15z M9.85,33.15L38,5h3L9.85,36.15V33.15z"/><path fill="#fff" d="M44.5,13l1.24,2.26L48,16.5l-2.26,1.24L44.5,20l-1.24-2.26L41,16.5l2.26-1.24L44.5,13z M29.42,11	l0.85,1.56l1.57,0.86l-1.57,0.85l-0.85,1.57l-0.86-1.57L27,13.42l1.56-0.86L29.42,11z M15.65,42l0.58,1.06l1.07,0.59l-1.07,0.58	l-0.58,1.07l-0.59-1.07L14,43.65l1.06-0.59L15.65,42z"/><path fill="#bbdef9" d="M22,5v12H10L22,5z"/><path fill="#8d6c9f" d="M52,4H22.66c-1.327-0.002-2.6,0.523-3.54,1.46l-8.66,8.66C9.523,15.06,8.998,16.333,9,17.66V57	c0,1.657,1.343,3,3,3h40c1.657,0,3-1.343,3-3V7C55,5.343,53.657,4,52,4z M20.54,6.88C20.68,6.738,20.834,6.611,21,6.5V15	c0,0.552-0.448,1-1,1h-8.5c0.111-0.166,0.238-0.32,0.38-0.46L20.54,6.88z M53,57c0,0.552-0.448,1-1,1H12c-0.552,0-1-0.448-1-1V18h9	c1.657,0,3-1.343,3-3V6h29c0.552,0,1,0.448,1,1V57z"/><path fill="#8d6c9f" d="M14,50c-0.552,0-1,0.448-1,1v2c0,0.552,0.448,1,1,1c0.552,0,1-0.448,1-1v-2	C15,50.448,14.552,50,14,50z M19,50c-0.552,0-1,0.448-1,1v2c0,0.552,0.448,1,1,1s1-0.448,1-1v-2C20,50.448,19.552,50,19,50z M24,50	c-0.552,0-1,0.448-1,1v2c0,0.552,0.448,1,1,1s1-0.448,1-1v-2C25,50.448,24.552,50,24,50z M29,50c-0.552,0-1,0.448-1,1v2	c0,0.552,0.448,1,1,1s1-0.448,1-1v-2C30,50.448,29.552,50,29,50z M34,50c-0.552,0-1,0.448-1,1v2c0,0.552,0.448,1,1,1s1-0.448,1-1v-2	C35,50.448,34.552,50,34,50z M39,50c-0.552,0-1,0.448-1,1v2c0,0.552,0.448,1,1,1s1-0.448,1-1v-2C40,50.448,39.552,50,39,50z M44,50	c-0.552,0-1,0.448-1,1v2c0,0.552,0.448,1,1,1c0.552,0,1-0.448,1-1v-2C45,50.448,44.552,50,44,50z M49,50c-0.552,0-1,0.448-1,1v2	c0,0.552,0.448,1,1,1s1-0.448,1-1v-2C50,50.448,49.552,50,49,50z"/></svg>